<svg xmlns="http://www.w3.org/2000/svg" viewBox="0 0 24 24" id="favro">
  <path fill="#4F2CA3" d="m8.255 12.28.02.042v-4.11c0-1.851 1.478-3.351 3.302-3.351h.008c.91 0 1.655-.756 1.655-1.68 0-.924-.745-1.68-1.655-1.68l.001-.001c-3.656.001-6.619 3.009-6.62 6.72v.784a7.608 7.608 0 0 1 3.289 3.276z"></path>
  <path fill="#4F2CA3" d="M1.656 12.419h.008c1.824 0 3.302 1.5 3.302 3.351v5.048c0 .924.745 1.68 1.655 1.68s1.655-.756 1.655-1.68v-5.04c-.001-3.711-2.965-6.719-6.621-6.72l.001.002C.745 9.06 0 9.816 0 10.739c0 .924.745 1.68 1.656 1.68zM24 20.82V10.74a1.673 1.673 0 0 0-1.655-1.68 1.64 1.64 0 0 0-1.503.994 6.433 6.433 0 0 0-3.452-.994h-.01c-3.655 0-6.621 3.011-6.621 6.72 0 3.71 2.966 6.72 6.621 6.72h.008a6.475 6.475 0 0 0 3.482-1.01l-.028.016c.262.588.841.994 1.503.994.913-.003 1.651-.753 1.655-1.68zm-6.62-1.681c-1.835 0-3.31-1.498-3.31-3.36s1.476-3.36 3.31-3.36 3.31 1.498 3.31 3.36-1.476 3.36-3.31 3.36z"></path>
</svg>
